<svg width="205" height="170" viewBox="0 0 205 170" fill="none" xmlns="http://www.w3.org/2000/svg">
<path d="M21.096 159.398V140.207H11.65L11.532 144.153C11.4533 145.83 11.3352 147.416 11.1777 148.913C11.0466 150.409 10.8366 151.776 10.548 153.014C10.2594 154.226 9.87893 155.258 9.40663 156.109C8.96057 156.961 8.39643 157.567 7.71422 157.928L0.90524 157.077C1.84984 157.103 2.62388 156.78 3.22738 156.109C3.85711 155.439 4.35565 154.497 4.72299 153.285C5.09034 152.047 5.35272 150.602 5.51016 148.951C5.69383 147.3 5.82502 145.508 5.90374 143.573L6.21861 135.099H27.3934V159.398H21.096ZM0 167.795L0.0393583 157.077H31.2505V167.795H25.3467V162.184H5.90374V167.795H0Z" fill="#EAEAEA"/>
<path d="M44.758 162.494C42.5015 162.494 40.4942 162.029 38.7362 161.101C37.0045 160.172 35.6269 158.908 34.6036 157.309C33.6065 155.684 33.108 153.839 33.108 151.776C33.108 149.686 33.6065 147.842 34.6036 146.243C35.6269 144.618 37.0045 143.354 38.7362 142.451C40.4942 141.522 42.5015 141.058 44.758 141.058C46.9883 141.058 48.9825 141.522 50.7405 142.451C52.4985 143.354 53.876 144.605 54.8731 146.204C55.8702 147.803 56.3687 149.661 56.3687 151.776C56.3687 153.839 55.8702 155.684 54.8731 157.309C53.876 158.908 52.4985 160.172 50.7405 161.101C48.9825 162.029 46.9883 162.494 44.758 162.494ZM44.758 157.541C45.7814 157.541 46.6997 157.309 47.5131 156.845C48.3265 156.38 48.9694 155.722 49.4417 154.871C49.914 153.994 50.1501 152.962 50.1501 151.776C50.1501 150.563 49.914 149.532 49.4417 148.68C48.9694 147.829 48.3265 147.171 47.5131 146.707C46.6997 146.243 45.7814 146.011 44.758 146.011C43.7347 146.011 42.8164 146.243 42.003 146.707C41.1896 147.171 40.5336 147.829 40.035 148.68C39.5627 149.532 39.3266 150.563 39.3266 151.776C39.3266 152.962 39.5627 153.994 40.035 154.871C40.5336 155.722 41.1896 156.38 42.003 156.845C42.8164 157.309 43.7347 157.541 44.758 157.541Z" fill="#EAEAEA"/>
<path d="M70.6675 162.494C68.3847 162.494 66.3512 162.042 64.5669 161.139C62.7827 160.211 61.3789 158.934 60.3556 157.309C59.3585 155.684 58.86 153.839 58.86 151.776C58.86 149.686 59.3585 147.842 60.3556 146.243C61.3789 144.618 62.7827 143.354 64.5669 142.451C66.3512 141.522 68.3847 141.058 70.6675 141.058C72.8978 141.058 74.8394 141.522 76.4925 142.451C78.1455 143.354 79.3656 144.656 80.1528 146.359L75.3905 148.874C74.8394 147.894 74.1441 147.171 73.3045 146.707C72.4911 146.243 71.5989 146.011 70.6281 146.011C69.5785 146.011 68.634 146.243 67.7943 146.707C66.9547 147.171 66.2856 147.829 65.787 148.68C65.3147 149.532 65.0786 150.563 65.0786 151.776C65.0786 152.988 65.3147 154.02 65.787 154.871C66.2856 155.722 66.9547 156.38 67.7943 156.845C68.634 157.309 69.5785 157.541 70.6281 157.541C71.5989 157.541 72.4911 157.322 73.3045 156.883C74.1441 156.419 74.8394 155.684 75.3905 154.678L80.1528 157.232C79.3656 158.908 78.1455 160.211 76.4925 161.139C74.8394 162.042 72.8978 162.494 70.6675 162.494Z" fill="#EAEAEA"/>
<path d="M88.3716 162.184V144.927L89.7491 146.32H81.2084V141.368H101.635V146.32H93.0946L94.4721 144.927V162.184H88.3716Z" fill="#EAEAEA"/>
<path d="M107.897 170C106.795 170 105.706 169.832 104.63 169.497C103.554 169.162 102.675 168.697 101.993 168.104L104.236 163.809C104.709 164.222 105.247 164.544 105.85 164.777C106.48 165.009 107.096 165.125 107.7 165.125C108.566 165.125 109.248 164.918 109.747 164.506C110.271 164.119 110.744 163.461 111.163 162.532L112.265 159.979L112.738 159.321L120.334 141.368H126.238L116.674 163.461C115.991 165.138 115.204 166.453 114.312 167.408C113.446 168.362 112.475 169.033 111.4 169.42C110.35 169.807 109.182 170 107.897 170ZM111.518 162.997L102.072 141.368H108.408L115.729 158.779L111.518 162.997Z" fill="#EAEAEA"/>
<path d="M129.2 162.184V141.368H150.256V162.184H144.116V144.966L145.494 146.32H133.923L135.3 144.966V162.184H129.2Z" fill="#EAEAEA"/>
<path d="M156.143 162.184V141.368H162.244V149.493H171.454V141.368H177.593V162.184H171.454V154.407H162.244V162.184H156.143Z" fill="#EAEAEA"/>
<path d="M193.389 162.494C191.133 162.494 189.126 162.029 187.368 161.101C185.636 160.172 184.258 158.908 183.235 157.309C182.238 155.684 181.739 153.839 181.739 151.776C181.739 149.686 182.238 147.842 183.235 146.243C184.258 144.618 185.636 143.354 187.368 142.451C189.126 141.522 191.133 141.058 193.389 141.058C195.62 141.058 197.614 141.522 199.372 142.451C201.13 143.354 202.507 144.605 203.504 146.204C204.501 147.803 205 149.661 205 151.776C205 153.839 204.501 155.684 203.504 157.309C202.507 158.908 201.13 160.172 199.372 161.101C197.614 162.029 195.62 162.494 193.389 162.494ZM193.389 157.541C194.413 157.541 195.331 157.309 196.144 156.845C196.958 156.38 197.601 155.722 198.073 154.871C198.545 153.994 198.781 152.962 198.781 151.776C198.781 150.563 198.545 149.532 198.073 148.68C197.601 147.829 196.958 147.171 196.144 146.707C195.331 146.243 194.413 146.011 193.389 146.011C192.366 146.011 191.448 146.243 190.634 146.707C189.821 147.171 189.165 147.829 188.666 148.68C188.194 149.532 187.958 150.563 187.958 151.776C187.958 152.962 188.194 153.994 188.666 154.871C189.165 155.722 189.821 156.38 190.634 156.845C191.448 157.309 192.366 157.541 193.389 157.541Z" fill="#EAEAEA"/>
<path d="M133.249 106.954C107.383 106.954 81.485 106.954 55.6192 106.954C54.9837 106.667 54.2846 106.762 53.5855 106.635C50.0266 105.965 47.5162 104.148 46.563 100.514C46.4359 99.9716 46.4359 99.3977 46.1816 98.8876C46.2134 76.1877 46.2134 53.4878 46.2134 30.7879C46.3405 30.7561 46.3087 30.6604 46.3405 30.5648C46.4359 29.5446 46.563 28.5243 46.7854 27.536C47.3891 24.7304 48.406 22.0842 50.3761 19.9162C52.2191 17.9396 54.4435 16.8875 57.208 16.8875C65.4698 16.9193 73.7316 16.8875 81.9934 16.8875C82.1841 16.8875 82.3748 16.8875 82.5654 16.8875C82.4383 17.0469 82.3112 17.1106 82.1841 17.1744C76.2737 19.8525 70.3316 22.5305 64.4212 25.2405C64.1034 25.3999 63.7857 25.4637 63.4361 25.4637C61.4978 25.4637 59.5277 25.4956 57.5893 25.4318C56.8902 25.3999 56.4771 25.7187 56.2229 26.2607C55.4921 27.6954 55.2379 29.2576 55.4921 30.8517C55.8098 32.924 56.5407 33.5298 58.6379 33.5298C83.1374 33.5298 107.669 33.5298 132.168 33.5298C132.963 33.5298 133.757 33.5298 134.551 33.7211C138.905 34.6775 141.86 38.3439 141.892 42.8074C141.923 46.155 141.892 49.5345 141.923 52.8821C141.923 53.4241 141.828 53.5835 141.224 53.5835C128.927 53.5516 116.63 53.5516 104.332 53.5835C98.8666 53.5835 94.6086 57.8557 94.5768 63.3075C94.5451 66.8463 94.5768 70.3533 94.5768 73.8922C94.5768 74.8806 94.7039 75.8051 94.9899 76.7616C96.2928 80.9381 100.011 83.6162 104.491 83.6162C116.757 83.6162 128.99 83.6162 141.256 83.6162C141.574 83.6162 141.86 83.5524 141.86 84.0625C141.828 88.6217 141.892 93.2126 141.828 97.7718C141.796 102.14 138.905 105.678 134.71 106.699C134.234 106.794 133.725 106.762 133.249 106.954ZM129.658 41.6278C128.482 41.6278 127.306 41.6278 126.131 41.6278C125.273 41.6278 124.701 42.1379 124.669 42.8712C124.637 43.6045 125.209 44.1783 126.067 44.1783C128.45 44.2102 130.865 44.2102 133.249 44.1783C134.106 44.1783 134.647 43.6045 134.615 42.8393C134.583 42.106 134.043 41.6278 133.185 41.6278C132.041 41.5959 130.834 41.6278 129.658 41.6278ZM129.69 98.5369C128.514 98.5369 127.306 98.5369 126.131 98.5369C125.273 98.5369 124.701 99.0789 124.701 99.8122C124.701 100.545 125.241 101.087 126.067 101.087C128.45 101.119 130.865 101.119 133.249 101.087C134.138 101.087 134.647 100.545 134.647 99.7803C134.647 99.0151 134.075 98.5369 133.185 98.5369C132.009 98.5369 130.865 98.5369 129.69 98.5369ZM116.121 41.6278C114.945 41.6278 113.738 41.6278 112.562 41.6278C111.704 41.6278 111.132 42.1379 111.132 42.8712C111.132 43.6045 111.641 44.1464 112.467 44.1783C114.882 44.2102 117.297 44.2102 119.712 44.1783C120.538 44.1783 121.078 43.6045 121.078 42.9031C121.078 42.1698 120.506 41.6278 119.648 41.6278C118.473 41.5959 117.297 41.6278 116.121 41.6278ZM116.089 98.5369C114.914 98.5369 113.738 98.5369 112.594 98.5369C111.672 98.5369 111.132 99.0151 111.1 99.8122C111.1 100.577 111.641 101.087 112.53 101.087C114.914 101.119 117.297 101.119 119.68 101.087C120.538 101.087 121.11 100.514 121.078 99.7803C121.046 99.0151 120.474 98.5369 119.617 98.5369C118.441 98.5369 117.265 98.5369 116.089 98.5369ZM89.3655 41.6278C88.2216 41.6278 87.0459 41.6278 85.9019 41.6278C84.9804 41.6278 84.4084 42.106 84.3767 42.8712C84.3767 43.6363 84.9486 44.1783 85.8384 44.1783C88.1898 44.1783 90.5413 44.1783 92.8609 44.1783C93.7824 44.1783 94.3226 43.6363 94.2909 42.8712C94.2591 42.106 93.7189 41.6278 92.8291 41.6278C91.717 41.5959 90.5413 41.6278 89.3655 41.6278ZM89.3973 98.5369C88.2216 98.5369 87.0141 98.5369 85.8384 98.5369C84.9804 98.5369 84.4084 99.0789 84.4084 99.8122C84.4084 100.545 84.9486 101.087 85.7748 101.087C88.1898 101.119 90.573 101.119 92.988 101.087C93.846 101.087 94.3862 100.514 94.3544 99.7484C94.3226 99.0151 93.7824 98.5369 92.9245 98.5369C91.7488 98.5369 90.573 98.5369 89.3973 98.5369ZM61.2436 44.1783C62.5146 44.1783 63.7857 44.1783 65.0249 44.1464C65.7558 44.1146 66.2642 43.5407 66.2642 42.8712C66.2642 42.1698 65.724 41.6278 64.9932 41.6278C62.5146 41.6278 60.0361 41.6278 57.5893 41.6278C56.922 41.6278 56.4454 42.106 56.3183 42.7118C56.2229 43.2538 56.5725 43.8276 57.0809 44.0508C57.3351 44.1783 57.6211 44.1783 57.9071 44.1783C59.0192 44.1783 60.1314 44.1783 61.2436 44.1783ZM74.8756 44.1783C76.0831 44.1783 77.2906 44.2102 78.4981 44.1783C79.3242 44.1464 79.8644 43.6045 79.8327 42.8712C79.8009 42.1379 79.2607 41.6278 78.4345 41.6278C77.6083 41.6278 76.8139 41.6278 75.9877 41.6278C74.3989 41.6278 72.8101 41.6278 71.2213 41.6278C70.6493 41.6278 70.2045 41.8828 69.982 42.4248C69.7914 42.9031 69.8867 43.3494 70.2362 43.7639C70.554 44.1146 70.9671 44.1783 71.412 44.1783C72.5877 44.1783 73.7316 44.1783 74.8756 44.1783ZM102.934 41.6278C101.758 41.6278 100.583 41.6278 99.4386 41.6278C98.5806 41.6278 98.0087 42.1379 97.9769 42.8712C97.9769 43.5726 98.5171 44.1464 99.3433 44.1783C101.758 44.2102 104.173 44.2102 106.588 44.1783C107.414 44.1783 107.955 43.6045 107.955 42.9031C107.955 42.1698 107.383 41.6278 106.525 41.6278C105.317 41.5959 104.11 41.6278 102.934 41.6278ZM61.3389 98.5369C60.1632 98.5369 58.9875 98.5369 57.8435 98.5369C56.922 98.5369 56.35 99.047 56.35 99.8122C56.35 100.545 56.922 101.087 57.78 101.087C60.1632 101.087 62.5464 101.119 64.9296 101.087C65.7876 101.087 66.3595 100.514 66.3278 99.7803C66.3278 99.0151 65.7558 98.5369 64.8661 98.5369C63.6586 98.5369 62.5146 98.5369 61.3389 98.5369ZM74.8438 101.119C76.0831 101.119 77.2906 101.119 78.5298 101.119C78.5934 101.119 78.6569 101.119 78.6887 101.087C79.4196 100.992 79.8644 100.482 79.8327 99.7803C79.8009 99.1108 79.3242 98.5369 78.5934 98.5369C76.1148 98.505 73.6045 98.505 71.126 98.5369C70.4905 98.5369 69.982 99.0151 69.8867 99.589C69.7914 100.195 70.1091 100.769 70.6176 100.992C70.8718 101.087 71.1578 101.119 71.4437 101.119C72.6195 101.119 73.7316 101.119 74.8438 101.119ZM102.966 98.5369C101.79 98.5369 100.614 98.5369 99.4704 98.5369C98.6124 98.5369 98.0404 99.0151 98.0087 99.7803C97.9769 100.514 98.5806 101.087 99.4704 101.087C101.822 101.087 104.173 101.087 106.556 101.087C107.414 101.087 107.986 100.545 107.986 99.8122C107.986 99.047 107.414 98.5369 106.525 98.5369C105.285 98.5369 104.11 98.5369 102.966 98.5369ZM55.3967 93.2445C55.3967 92.0649 55.3967 90.8534 55.3967 89.6738C55.3967 88.8129 54.8883 88.2391 54.1575 88.2391C53.4266 88.2391 52.8864 88.8129 52.8864 89.6738C52.8864 92.033 52.8864 94.4242 52.8864 96.7834C52.8864 97.6761 53.3948 98.2181 54.1257 98.2181C54.8883 98.2181 55.3967 97.6442 55.3967 96.7834C55.4285 95.5719 55.3967 94.3923 55.3967 93.2445ZM52.8864 51.3836C52.8864 52.5633 52.8864 53.7748 52.8864 54.9544C52.8864 55.8471 53.3948 56.3891 54.1257 56.3891C54.8883 56.3891 55.3967 55.8152 55.3967 54.9544C55.3967 52.5951 55.3967 50.204 55.3967 47.8447C55.3967 46.9839 54.8883 46.3782 54.1575 46.3782C53.4266 46.3782 52.8864 46.952 52.8864 47.8129C52.8864 49.0244 52.8864 50.204 52.8864 51.3836ZM52.8864 64.9972C52.8864 66.1768 52.8864 67.3883 52.8864 68.568C52.8864 69.4288 53.3948 70.0026 54.1257 70.0026C54.8566 70.0026 55.3967 69.4288 55.3967 68.568C55.3967 66.2087 55.3967 63.8176 55.3967 61.4583C55.3967 60.5656 54.8883 60.0236 54.1257 60.0236C53.3631 60.0236 52.8864 60.5656 52.8546 61.4583C52.8864 62.6379 52.8864 63.8176 52.8864 64.9972ZM55.3967 79.5353C55.3967 78.3557 55.3967 77.1761 55.3967 75.9964C55.3967 75.1356 54.8883 74.5617 54.1257 74.5936C53.3948 74.5936 52.8864 75.1356 52.8864 75.9964C52.8864 78.3876 52.8864 80.7787 52.8864 83.1699C52.8864 84.0307 53.3948 84.6045 54.1575 84.5727C54.8883 84.5727 55.3967 84.0307 55.3967 83.1699C55.4285 81.9583 55.3967 80.7468 55.3967 79.5353Z" fill="#EAEAEA"/>
<path d="M123.375 57.4547C116.878 57.4547 110.381 57.5215 103.885 57.4213C100.525 57.3879 97.9323 59.9932 97.9963 63.5337C98.0603 66.9741 97.9963 70.4144 97.9963 73.8548C97.9963 74.3892 98.0283 74.9236 98.1563 75.458C98.7643 78.1969 100.941 79.9338 103.725 79.9338C117.006 79.9338 130.255 79.9338 143.536 79.9338C144.08 79.9338 144.176 79.7334 144.176 79.2324C144.176 72.1847 144.144 65.1704 144.176 58.1227C144.176 57.5549 144.08 57.3879 143.504 57.4213C136.816 57.4547 130.095 57.4547 123.375 57.4547Z" fill="#EAEAEA"/>
<path d="M158.817 47.4255C154.57 49.6201 150.323 51.8452 146.109 54.0398C145.914 53.9483 146.012 53.7959 146.012 53.674C145.979 51.6318 145.979 49.5591 145.947 47.5169C145.947 47.1817 146.076 47.0292 146.368 46.9073C147.6 46.2977 148.8 45.6576 150.032 45.0785C150.421 44.8956 150.485 44.7432 150.291 44.347C145.007 33.1301 139.722 21.9438 134.47 10.727C134.081 9.87354 133.66 9.05056 133.303 8.19711C133.141 7.83134 133.012 7.80086 132.655 7.95327C127.922 9.7821 123.189 11.5804 118.456 13.4093C103.186 19.2615 87.9495 25.0833 72.6802 30.9356C72.2912 31.088 71.9022 31.1489 71.5131 31.1489C66.9421 31.0575 62.371 30.9965 57.8 30.9051C57.7027 30.9051 57.573 30.9051 57.4434 30.8136C58.578 30.3564 59.6803 29.9297 60.8149 29.4725C79.1964 22.2486 97.6427 15.0247 116.121 7.80086C122.702 5.2405 129.316 2.68014 135.864 0.0893005C136.351 -0.0935824 136.513 -0.00214091 136.707 0.424586C144.002 15.9087 151.296 31.4232 158.59 46.9073C158.655 47.0597 158.687 47.2121 158.817 47.3341C158.817 47.3341 158.817 47.395 158.817 47.4255Z" fill="#EAEAEA"/>
<path d="M123.343 57.4185C130.063 57.4185 136.784 57.4185 143.504 57.4185C144.08 57.4185 144.176 57.5855 144.176 58.12C144.144 65.1686 144.144 72.1837 144.176 79.2323C144.176 79.7334 144.112 79.9338 143.536 79.9338C130.255 79.9004 117.006 79.9338 103.725 79.9338C100.909 79.9338 98.7643 78.1967 98.1563 75.4575C98.0283 74.923 97.9963 74.3885 97.9963 73.854C97.9963 70.4132 98.0603 66.9725 97.9963 63.5317C97.9323 59.9907 100.525 57.3517 103.885 57.4185C110.349 57.4853 116.846 57.4185 123.343 57.4185Z" fill="#EAEAEA"/>
</svg>
