<svg width="153" height="170" viewBox="0 0 153 170" fill="none" xmlns="http://www.w3.org/2000/svg">
<path d="M0 162.574V135.779H21.8684V140.717H6.23152V146.229H13.7403C17.0173 146.229 19.5074 146.905 21.2104 148.258C22.9392 149.61 23.8036 151.575 23.8036 154.153C23.8036 156.807 22.8489 158.874 20.9395 160.354C19.03 161.834 16.3335 162.574 12.8501 162.574H0ZM6.23152 157.981H12.5017C14.1016 157.981 15.3272 157.674 16.1787 157.062C17.0302 156.424 17.456 155.505 17.456 154.306C17.456 151.958 15.8046 150.784 12.5017 150.784H6.23152V157.981Z" fill="#EAEAEA"/>
<path d="M49.5534 162.574V141.98H55.5527V162.574H49.5534ZM39.0643 148.564C41.7995 148.59 43.8508 149.202 45.2184 150.401C46.6118 151.575 47.3085 153.247 47.3085 155.416C47.3085 157.687 46.5215 159.461 44.9475 160.737C43.3735 161.987 41.1415 162.612 38.2515 162.612L28.1108 162.574V141.98H34.1101V148.564H39.0643ZM37.7096 158.363C38.8708 158.389 39.761 158.146 40.3803 157.636C40.9996 157.126 41.3092 156.36 41.3092 155.339C41.3092 154.319 40.9996 153.591 40.3803 153.158C39.761 152.698 38.8708 152.456 37.7096 152.43L34.1101 152.392V158.363H37.7096Z" fill="#EAEAEA"/>
<path d="M71.2815 162.88C69.0366 162.88 67.0368 162.434 65.2822 161.54C63.5275 160.622 62.1471 159.359 61.1407 157.751C60.1602 156.143 59.6699 154.319 59.6699 152.277C59.6699 150.21 60.1602 148.385 61.1407 146.803C62.1471 145.196 63.5275 143.945 65.2822 143.052C67.0368 142.133 69.0366 141.674 71.2815 141.674C73.4747 141.674 75.3842 142.133 77.0098 143.052C78.6354 143.945 79.8353 145.234 80.6094 146.918L75.9261 149.406C75.3842 148.437 74.7004 147.722 73.8747 147.263C73.0748 146.803 72.1975 146.574 71.2428 146.574C70.2106 146.574 69.2817 146.803 68.456 147.263C67.6303 147.722 66.9723 148.373 66.482 149.215C66.0176 150.057 65.7853 151.078 65.7853 152.277C65.7853 153.477 66.0176 154.497 66.482 155.339C66.9723 156.181 67.6303 156.832 68.456 157.292C69.2817 157.751 70.2106 157.981 71.2428 157.981C72.1975 157.981 73.0748 157.764 73.8747 157.33C74.7004 156.871 75.3842 156.143 75.9261 155.148L80.6094 157.674C79.8353 159.333 78.6354 160.622 77.0098 161.54C75.3842 162.434 73.4747 162.88 71.2815 162.88Z" fill="#EAEAEA"/>
<path d="M88.6918 162.574V145.502L90.0465 146.88H81.6475V141.98H101.735V146.88H93.3364L94.6911 145.502V162.574H88.6918Z" fill="#EAEAEA"/>
<path d="M117.223 162.88C115.469 162.88 113.934 162.497 112.618 161.732C111.302 160.966 110.269 159.805 109.521 158.249C108.799 156.666 108.437 154.676 108.437 152.277C108.437 149.853 108.786 147.862 109.482 146.306C110.179 144.749 111.186 143.588 112.501 142.822C113.817 142.057 115.391 141.674 117.223 141.674C119.185 141.674 120.939 142.121 122.487 143.014C124.061 143.881 125.3 145.106 126.203 146.688C127.132 148.271 127.596 150.134 127.596 152.277C127.596 154.446 127.132 156.322 126.203 157.904C125.3 159.486 124.061 160.711 122.487 161.579C120.939 162.446 119.185 162.88 117.223 162.88ZM104.915 170V141.98H110.682V146.191L110.566 152.315L110.953 158.402V170H104.915ZM116.178 157.981C117.185 157.981 118.075 157.751 118.849 157.292C119.649 156.832 120.281 156.181 120.746 155.339C121.236 154.472 121.481 153.451 121.481 152.277C121.481 151.078 121.236 150.057 120.746 149.215C120.281 148.373 119.649 147.722 118.849 147.263C118.075 146.803 117.185 146.574 116.178 146.574C115.172 146.574 114.269 146.803 113.469 147.263C112.669 147.722 112.037 148.373 111.573 149.215C111.108 150.057 110.876 151.078 110.876 152.277C110.876 153.451 111.108 154.472 111.573 155.339C112.037 156.181 112.669 156.832 113.469 157.292C114.269 157.751 115.172 157.981 116.178 157.981Z" fill="#EAEAEA"/>
<path d="M141.582 162.88C139.363 162.88 137.389 162.421 135.66 161.502C133.957 160.584 132.602 159.333 131.596 157.751C130.616 156.143 130.125 154.319 130.125 152.277C130.125 150.21 130.616 148.385 131.596 146.803C132.602 145.196 133.957 143.945 135.66 143.052C137.389 142.133 139.363 141.674 141.582 141.674C143.775 141.674 145.736 142.133 147.465 143.052C149.194 143.945 150.549 145.183 151.529 146.765C152.51 148.347 153 150.185 153 152.277C153 154.319 152.51 156.143 151.529 157.751C150.549 159.333 149.194 160.584 147.465 161.502C145.736 162.421 143.775 162.88 141.582 162.88ZM141.582 157.981C142.588 157.981 143.491 157.751 144.291 157.292C145.091 156.832 145.723 156.181 146.188 155.339C146.652 154.472 146.885 153.451 146.885 152.277C146.885 151.078 146.652 150.057 146.188 149.215C145.723 148.373 145.091 147.722 144.291 147.263C143.491 146.803 142.588 146.574 141.582 146.574C140.576 146.574 139.673 146.803 138.873 147.263C138.073 147.722 137.428 148.373 136.937 149.215C136.473 150.057 136.241 151.078 136.241 152.277C136.241 153.451 136.473 154.472 136.937 155.339C137.428 156.181 138.073 156.832 138.873 157.292C139.673 157.751 140.576 157.981 141.582 157.981Z" fill="#EAEAEA"/>
<path d="M80.5686 0.0182886C84.0731 0.0182886 87.5777 0.0182886 91.0823 0.0182886C93.3381 0.0182886 95.2717 1.58197 95.8759 3.80404C96.7218 6.8491 94.5869 10.0588 91.4851 10.3879C89.8335 10.5525 88.1417 10.4291 86.4901 10.4702C85.6442 10.4702 85.6039 10.5114 85.6039 11.3755C85.6039 12.8569 85.6442 14.3383 85.6039 15.8197C85.6039 16.3958 85.8053 16.6015 86.329 16.6427C92.4519 17.4245 98.172 19.3997 103.449 22.6505C115.091 29.8516 122.14 40.3447 124.517 53.9652C126.853 67.3799 123.832 79.6836 115.614 90.4236C108.202 100.135 98.4137 105.896 86.4901 107.665C75.493 109.311 65.2209 107.007 55.7948 100.999C54.7878 100.341 53.7807 99.6822 52.8542 98.9004C50.7192 97.0898 50.397 93.9625 52.0486 91.7404C53.6599 89.5595 56.7213 89.0245 58.9772 90.5882C60.1453 91.4112 61.233 92.3165 62.4414 93.0983C68.5241 96.9664 75.1304 98.8181 82.2604 98.5712C90.5183 98.2832 97.7692 95.3616 104.013 89.8475C110.7 83.922 114.688 76.4328 115.775 67.4622C117.065 56.8868 114.285 47.4224 107.437 39.3572C102.12 33.1024 95.4328 28.9875 87.4166 27.4238C77.2251 25.4486 67.9199 27.6296 59.5411 33.9254C57.6881 35.3245 55.7143 35.6949 53.6599 34.5427C50.4373 32.7732 50.115 28.1645 53.0153 25.8601C59.4203 20.7988 66.7114 17.7126 74.7276 16.6427C75.4527 16.5604 75.493 16.5192 75.493 15.7785C75.493 14.256 75.493 12.7746 75.4527 11.2521C75.4527 10.5114 75.3721 10.4702 74.647 10.4702C73.1969 10.4702 71.787 10.4702 70.3368 10.4702C67.5976 10.4291 65.5029 8.65967 65.1001 6.14956C64.5764 3.0222 66.9128 0.0594381 70.0146 0.0182886C73.5191 -0.0228608 77.064 0.0182886 80.5686 0.0182886Z" fill="#EAEAEA"/>
<path d="M80.6029 73.9611C75.129 73.9611 70.7499 69.4225 70.9604 64.0013C71.1709 58.5381 75.929 54.2936 81.4029 54.7559C81.8661 54.7979 82.203 54.6718 82.5398 54.4197C86.8768 50.9316 91.2138 47.4436 95.5508 43.9976C97.6983 42.2746 100.688 42.989 101.698 45.4685C102.33 47.0234 101.909 48.4522 100.898 49.7129C97.6141 53.7893 94.3297 57.9077 91.0033 61.9841C90.4559 62.6565 90.2454 63.2869 90.2875 64.1694C90.4559 69.4645 85.9926 73.9611 80.6029 73.9611Z" fill="#EAEAEA"/>
<path d="M38.196 50.744C32.5075 50.744 26.819 50.744 21.1305 50.744C18.7978 50.744 16.9972 49.3679 16.6698 47.3567C16.3424 45.3808 18.0203 43.4048 20.353 43.1226C20.844 43.052 21.3351 43.052 21.8262 43.052C32.7939 43.052 43.7207 43.052 54.6885 43.052C56.2436 43.052 57.635 43.299 58.699 44.3575C59.9268 45.5925 60.2132 47.0039 59.4357 48.4858C58.6581 49.9677 57.3076 50.744 55.4251 50.7793C49.6548 50.7793 43.9254 50.744 38.196 50.744Z" fill="#EAEAEA"/>
<path d="M42.6368 68.4315C38.4724 68.4315 34.308 68.4315 30.1436 68.4315C28.9307 68.4315 27.839 68.1092 26.99 67.3036C25.6153 66.0147 25.1706 64.4438 25.7366 62.6716C26.3026 60.9396 27.556 59.9326 29.3754 59.6506C29.6989 59.6104 30.0223 59.6104 30.3457 59.6104C38.5533 59.6104 46.7608 59.6104 54.9683 59.6104C56.3429 59.6104 57.5963 59.9326 58.5666 60.9396C59.8604 62.309 60.2243 63.9202 59.4965 65.6522C58.8092 67.3842 57.4345 68.3509 55.5747 68.3912C51.2486 68.4717 46.9629 68.4315 42.6368 68.4315Z" fill="#EAEAEA"/>
<path d="M45.426 74.0114C48.7446 74.0114 52.0631 73.9611 55.3817 74.0114C57.5941 74.0617 59.4661 76.0236 59.8065 78.5891C60.2745 82.0098 58.0621 84.9777 54.9988 84.9777C51.2548 85.028 47.5107 84.9777 43.8092 84.9777C41.1714 84.9777 38.491 84.9777 35.8532 84.9777C33.5557 84.9274 31.7688 83.368 31.2157 80.9534C30.4073 77.4824 32.5346 74.0114 35.5553 73.9611C38.8314 73.9611 42.15 74.0114 45.426 74.0114Z" fill="#EAEAEA"/>
</svg>
