<svg width="192" height="170" viewBox="0 0 192 170" fill="none" xmlns="http://www.w3.org/2000/svg">
<path d="M40.7721 46.8689C41.788 46.6867 42.8415 46.5044 43.8574 46.3222C46.1903 45.8484 48.4855 45.3746 50.8183 44.9008C51.1946 44.8279 51.3075 44.6822 51.3827 44.3542C51.8342 42.4954 52.3234 40.6367 52.8502 38.778C52.963 38.4135 52.8502 38.3042 52.5868 38.122C50.1787 36.4455 47.733 34.769 45.3249 33.0561C45.2496 32.9832 45.1367 32.9103 45.0239 32.8374C47.0181 29.0106 49.0123 25.2203 51.0441 21.3571C51.6837 21.5393 52.3234 21.758 52.9254 21.9402C55.4464 22.742 58.005 23.5438 60.526 24.382C60.8646 24.4914 61.0527 24.4549 61.3537 24.1634C62.7083 22.742 64.1381 21.3571 65.5303 20.0086C65.7937 19.7535 65.8689 19.5712 65.7184 19.2068C64.4767 16.5462 63.2351 13.8857 61.9558 11.1888C65.6808 8.85625 69.4058 6.52374 73.1308 4.15478C74.4101 5.53971 75.6518 6.85175 76.8558 8.20023C77.7589 9.18426 78.6995 10.1683 79.6026 11.1888C79.8283 11.4439 80.0165 11.5168 80.3927 11.4074C82.3493 10.8608 84.2683 10.3505 86.2625 9.91317C86.7892 9.80383 86.9397 9.58516 86.9774 9.07492C87.2407 6.4144 87.5418 3.71744 87.7675 1.05692C87.8051 0.619573 88.0685 0.619573 88.3695 0.583128C90.8529 0.473791 93.3739 0.328009 95.8572 0.218673C97.3999 0.145782 98.9426 0.072891 100.485 0C100.673 0 100.862 0 101.087 0C101.426 1.45782 101.727 2.91564 102.028 4.4099C102.367 6.04995 102.705 7.65355 103.081 9.2936C103.119 9.47583 103.307 9.73094 103.458 9.76739C105.678 10.3141 107.898 10.8243 110.193 11.371C111.924 9.03848 113.767 6.56019 115.649 4.04545C119.6 5.97706 123.55 7.94512 127.501 9.87673C126.937 11.5532 126.372 13.1568 125.846 14.7969C125.356 16.2547 124.867 17.6761 124.416 19.1339C124.378 19.3161 124.416 19.6077 124.529 19.717C126.147 21.2113 127.764 22.6691 129.495 24.2362C132.129 23.07 135.064 21.7944 138.036 20.5188C140.445 24.1269 142.853 27.6986 145.298 31.3431C145.11 31.4889 144.96 31.6711 144.772 31.8169C142.401 33.8579 140.068 35.8988 137.698 37.9033C137.397 38.1584 137.359 38.3771 137.472 38.7415C137.999 40.5274 138.45 42.3132 138.902 44.099C139.015 44.5364 139.203 44.6822 139.654 44.7186C142.702 44.9737 145.788 45.3017 148.911 45.5933C149.136 49.8939 149.4 54.158 149.625 58.4586C148.948 58.6043 148.271 58.7501 147.631 58.8959C145.035 59.4061 142.439 59.9528 139.843 60.4631C139.278 60.5724 139.128 60.8275 139.015 61.3013C138.488 63.3422 137.886 65.4196 137.284 67.4606C137.246 67.5699 137.209 67.6428 137.133 67.7886C135.516 66.2579 133.935 64.7636 132.317 63.3058C130.323 61.4471 128.366 59.5884 126.41 57.7296C126.222 57.5839 126.109 57.2559 126.147 57.0372C127.275 48.0351 124.98 39.9442 118.96 32.9467C113.767 26.8968 107.032 23.2887 98.9426 22.3411C84.6822 20.6646 71.3248 28.4639 66.0947 41.5114C59.8863 57.1101 67.4492 74.8226 83.6286 81.2734C89.0092 83.3873 94.5403 83.9339 100.26 83.0593C100.485 83.0228 100.786 83.1321 100.937 83.2779C104.286 86.5945 107.597 89.911 110.908 93.2275C111.021 93.3369 111.096 93.4462 111.322 93.7013C109.026 94.3209 106.882 94.9405 104.699 95.5236C103.458 95.8516 103.458 95.8152 103.307 97.0908C103.044 99.6784 102.78 102.23 102.517 104.89C98.0772 105.109 93.6749 105.364 89.235 105.583C88.9716 104.271 88.6706 103.031 88.4072 101.756C88.0309 99.9335 87.617 98.1112 87.2407 96.2525C87.1655 95.961 87.0526 95.8152 86.714 95.7058C84.7198 95.1956 82.7256 94.6854 80.769 94.1387C80.3927 94.0293 80.167 94.0658 79.9412 94.3938C78.3233 96.5805 76.7053 98.7673 75.0498 100.99C74.9369 101.136 74.824 101.282 74.6735 101.464C70.7227 99.5326 66.8096 97.601 62.8212 95.6329C63.2727 94.3209 63.7242 93.0089 64.1381 91.6968C64.7401 89.9474 65.3045 88.2345 65.9065 86.4851C66.0194 86.1207 65.9818 85.902 65.6808 85.6104C64.251 84.2619 62.8212 82.877 61.429 81.4921C61.1656 81.2005 60.9775 81.237 60.6388 81.3828C58.005 82.549 55.3711 83.6788 52.7749 84.8086C52.6244 84.8815 52.4739 84.918 52.2481 85.0273C49.84 81.4192 47.4319 77.8475 44.9862 74.2394C45.6635 73.6199 46.3408 73.0367 47.0181 72.4536C48.8617 70.85 50.7054 69.2464 52.5868 67.6428C52.8125 67.4241 52.8878 67.2784 52.8125 66.9503C52.2858 65.0916 51.7966 63.2329 51.3075 61.3742C51.2322 61.0462 51.1193 60.9004 50.7807 60.864C47.7706 60.5724 44.7605 60.2808 41.788 59.9893C41.487 59.9528 41.3741 59.8799 41.3365 59.5519C41.1483 56.0531 40.9602 52.5179 40.7721 49.0192C40.7721 48.6912 40.6968 48.3996 40.6592 48.108C40.7721 47.5978 40.7721 47.2333 40.7721 46.8689Z" fill="#EAEAEA"/>
<path d="M74.4033 42.3799C74.5904 42.5698 74.74 42.6837 74.8523 42.8355C78.556 46.6322 82.2971 50.391 86.0008 54.1877C87.4224 55.6304 88.8066 55.6304 90.2282 54.1877C92.847 51.53 95.4283 48.8723 98.0471 46.2526C98.8327 45.4553 99.1694 44.5441 98.7953 43.481C98.6457 43.0254 98.309 42.5698 97.9723 42.1901C94.2686 38.3934 90.5275 34.5967 86.7864 30.8C86.6367 30.6481 86.4497 30.5342 86.3 30.3823C86.3 30.3064 86.3374 30.2305 86.3374 30.1925C87.5346 29.8508 88.7317 29.3952 89.9663 29.1674C101.115 26.7755 112.114 33.6095 115.144 44.7719C116.079 48.1889 116.154 51.6059 115.443 55.0609C115.368 55.4786 115.443 55.7443 115.742 56.0481C123.823 63.9832 131.904 71.9183 139.985 79.8914C143.24 83.0806 146.494 86.2698 149.712 89.4591C151.62 91.3195 152.368 93.5595 151.657 96.1792C149.749 103.089 145.335 107.417 138.414 108.898C136.281 109.354 134.373 108.557 132.877 107C126.105 99.938 119.371 92.8761 112.637 85.8142C108.335 81.2962 103.995 76.7781 99.6932 72.26C99.3939 71.9563 99.132 71.8803 98.7579 71.9942C87.2353 74.538 75.6005 66.8307 73.2436 55.0989C72.4206 51.0364 72.6824 47.0499 74.0666 43.1393C74.1415 42.9874 74.1789 42.7976 74.2537 42.6457C74.3285 42.5698 74.3659 42.4938 74.4033 42.3799Z" fill="#EAEAEA"/>
<path d="M18.8373 137.935H25.1949V165.442H18.8373V137.935ZM6.35759 165.442H0V137.935H6.35759V165.442ZM19.3082 154.164H5.88666V148.78H19.3082V154.164Z" fill="#EAEAEA"/>
<path d="M44.2434 165.442V161.316L43.851 160.412V153.024C43.851 151.714 43.4455 150.693 42.6344 149.959C41.8495 149.226 40.6329 148.859 38.9847 148.859C37.8597 148.859 36.7477 149.042 35.6489 149.409C34.5762 149.75 33.6605 150.221 32.9018 150.824L30.7041 146.541C31.8553 145.728 33.2419 145.1 34.864 144.654C36.4861 144.209 38.1344 143.986 39.8088 143.986C43.0268 143.986 45.5254 144.746 47.3045 146.266C49.0836 147.785 49.9731 150.156 49.9731 153.378V165.442H44.2434ZM37.8073 165.756C36.1591 165.756 34.7463 165.481 33.569 164.931C32.3916 164.355 31.489 163.582 30.8611 162.612C30.2332 161.643 29.9192 160.556 29.9192 159.351C29.9192 158.093 30.2201 156.993 30.8219 156.05C31.4498 155.107 32.4309 154.373 33.7652 153.85C35.0995 153.299 36.8393 153.024 38.9847 153.024H44.5966V156.6H39.6518C38.2129 156.6 37.2187 156.836 36.6693 157.308C36.146 157.779 35.8844 158.369 35.8844 159.076C35.8844 159.862 36.1852 160.49 36.787 160.962C37.4149 161.407 38.2652 161.63 39.3379 161.63C40.3582 161.63 41.2739 161.394 42.085 160.923C42.896 160.425 43.4847 159.705 43.851 158.761L44.7928 161.591C44.3481 162.953 43.537 163.988 42.3597 164.695C41.1824 165.402 39.6649 165.756 37.8073 165.756Z" fill="#EAEAEA"/>
<path d="M69.8117 162.691V149.331H62.9047L62.787 152.042C62.7347 153.168 62.6693 154.243 62.5908 155.264C62.5123 156.286 62.3553 157.216 62.1198 158.054C61.9105 158.866 61.5966 159.561 61.178 160.137C60.7594 160.687 60.1969 161.067 59.4905 161.276L53.4468 160.412C54.2056 160.412 54.8204 160.189 55.2913 159.744C55.7623 159.272 56.1285 158.631 56.3902 157.818C56.6518 156.98 56.848 156.037 56.9788 154.989C57.1096 153.915 57.2012 152.789 57.2535 151.61L57.5283 144.301H75.9339V162.691H69.8117ZM52.7404 170V160.412H78.9557V170H73.2652V165.442H58.4309V170H52.7404Z" fill="#EAEAEA"/>
<path d="M93.1296 165.756C90.7227 165.756 88.6035 165.285 86.7721 164.341C84.9668 163.398 83.5671 162.115 82.5729 160.49C81.5787 158.84 81.0816 156.967 81.0816 154.871C81.0816 152.749 81.5656 150.876 82.5337 149.252C83.5279 147.602 84.8752 146.318 86.5758 145.401C88.2764 144.458 90.1994 143.986 92.3448 143.986C94.4116 143.986 96.2692 144.432 97.9175 145.322C99.5919 146.187 100.913 147.444 101.881 149.095C102.849 150.719 103.333 152.671 103.333 154.95C103.333 155.186 103.32 155.461 103.294 155.775C103.268 156.063 103.242 156.338 103.215 156.6H86.0657V153.024H99.9974L97.6427 154.085C97.6427 152.985 97.4204 152.029 96.9756 151.217C96.5308 150.405 95.916 149.776 95.1311 149.331C94.3462 148.859 93.4305 148.623 92.384 148.623C91.3375 148.623 90.4087 148.859 89.5976 149.331C88.8128 149.776 88.1979 150.418 87.7532 151.256C87.3084 152.068 87.086 153.037 87.086 154.164V155.107C87.086 156.26 87.3346 157.281 87.8317 158.172C88.3549 159.037 89.0744 159.705 89.9901 160.176C90.932 160.621 92.0308 160.844 93.2866 160.844C94.4116 160.844 95.3927 160.674 96.23 160.333C97.0933 159.993 97.8782 159.482 98.5846 158.801L101.842 162.337C100.874 163.438 99.6573 164.289 98.1922 164.892C96.727 165.468 95.0395 165.756 93.1296 165.756ZM96.1907 141.393C95.432 141.393 94.791 141.144 94.2677 140.646C93.7445 140.149 93.4828 139.494 93.4828 138.681C93.4828 137.869 93.7445 137.214 94.2677 136.717C94.791 136.219 95.432 135.97 96.1907 135.97C96.9494 135.97 97.5904 136.219 98.1137 136.717C98.6631 137.214 98.9378 137.869 98.9378 138.681C98.9378 139.494 98.6631 140.149 98.1137 140.646C97.5904 141.144 96.9494 141.393 96.1907 141.393ZM88.2633 141.393C87.5046 141.393 86.8505 141.144 86.3011 140.646C85.7779 140.149 85.5162 139.494 85.5162 138.681C85.5162 137.869 85.7779 137.214 86.3011 136.717C86.8505 136.219 87.5046 135.97 88.2633 135.97C89.0221 135.97 89.6631 136.219 90.1863 136.717C90.7096 137.214 90.9712 137.869 90.9712 138.681C90.9712 139.494 90.7096 140.149 90.1863 140.646C89.6631 141.144 89.0221 141.393 88.2633 141.393Z" fill="#EAEAEA"/>
<path d="M132.842 165.442L127.23 155.421L132.175 152.474L140.102 165.442H132.842ZM123.62 157.425V152.514H130.958V157.425H123.62ZM132.803 155.579L127.034 154.95L133.117 144.301H139.592L132.803 155.579ZM111.964 165.442H104.743L112.631 152.474L117.576 155.421L111.964 165.442ZM125.425 165.442H119.381V144.301H125.425V165.442ZM121.187 157.425H113.887V152.514H121.187V157.425ZM112.003 155.579L105.214 144.301H111.689L117.733 154.95L112.003 155.579Z" fill="#EAEAEA"/>
<path d="M143.285 165.442V144.301H149.367V152.553H158.551V144.301H164.673V165.442H158.551V157.543H149.367V165.442H143.285Z" fill="#EAEAEA"/>
<path d="M180.423 165.756C178.173 165.756 176.171 165.285 174.419 164.341C172.692 163.398 171.318 162.115 170.298 160.49C169.304 158.84 168.807 156.967 168.807 154.871C168.807 152.749 169.304 150.876 170.298 149.252C171.318 147.602 172.692 146.318 174.419 145.401C176.171 144.458 178.173 143.986 180.423 143.986C182.647 143.986 184.635 144.458 186.388 145.401C188.141 146.318 189.515 147.588 190.509 149.213C191.503 150.837 192 152.723 192 154.871C192 156.967 191.503 158.84 190.509 160.49C189.515 162.115 188.141 163.398 186.388 164.341C184.635 165.285 182.647 165.756 180.423 165.756ZM180.423 160.726C181.443 160.726 182.359 160.49 183.17 160.019C183.981 159.547 184.622 158.879 185.093 158.015C185.564 157.124 185.799 156.076 185.799 154.871C185.799 153.64 185.564 152.592 185.093 151.728C184.622 150.863 183.981 150.195 183.17 149.724C182.359 149.252 181.443 149.016 180.423 149.016C179.403 149.016 178.487 149.252 177.676 149.724C176.865 150.195 176.211 150.863 175.714 151.728C175.243 152.592 175.007 153.64 175.007 154.871C175.007 156.076 175.243 157.124 175.714 158.015C176.211 158.879 176.865 159.547 177.676 160.019C178.487 160.49 179.403 160.726 180.423 160.726Z" fill="#EAEAEA"/>
</svg>
